<svg xmlns="http://www.w3.org/2000/svg" width="32" height="32" id="bible"><path d="M8.934 4C7.859 4 7 4.913 7 6v.467A.5.5 0 0 0 7 6.5v18.563c0 1.099.926 1.935 2 1.935h15.473l.02.002a.5.5 0 0 0 .058-.004.5.5 0 0 0 .017-.002.5.5 0 0 0 .024-.004.5.5 0 0 0-.092-.992h-.021c-.599-.005-.987-.329-.987-.887V25c0-.554.426-.983.977-.996a.5.5 0 0 0 .355-.117.5.5 0 0 0 .004-.002.5.5 0 0 0 .033-.031.5.5 0 0 0 .002-.004.5.5 0 0 0 .137-.432V4.5a.5.5 0 0 0-.5-.5H8.934zm0 1H10v18H9c-.366 0-.704.106-1 .28V12.034A.5.5 0 0 0 8 12V6c0-.575.42-1 .934-1zM11 5h13v1.467a.5.5 0 0 0 0 .033V23H11V5zm5.5 2a.5.5 0 0 0-.5.5V10h-2.5a.5.5 0 0 0-.5.5v2a.5.5 0 0 0 .5.5H16v7.5a.5.5 0 0 0 .5.5h2a.5.5 0 0 0 .5-.5V13h2.5a.5.5 0 0 0 .5-.5v-2a.5.5 0 0 0-.5-.5H19V7.5a.5.5 0 0 0-.5-.5h-2zm.5 1h1v2.5a.5.5 0 0 0 .5.5H21v1h-2.5a.5.5 0 0 0-.5.5V20h-1v-7.5a.5.5 0 0 0-.5-.5H14v-1h2.5a.5.5 0 0 0 .5-.5V8zM9 24h13.771c-.172.295-.279.635-.279 1v.111c0 .33.093.626.24.887H9c-.588 0-1-.373-1-.936v-.027A.5.5 0 0 0 8 25c0-.563.437-1 1-1z" font-family="sans-serif" font-weight="400" style="line-height:normal;text-indent:0;text-align:start;text-decoration-line:none;text-decoration-style:solid;text-decoration-color:#000;text-transform:none;block-progression:tb;white-space:normal;isolation:auto;mix-blend-mode:normal;solid-color:#000;solid-opacity:1"></path></svg>